<?xml version="1.0" encoding="UTF-8" standalone="no"?>
<!-- Created with Inkscape (http://www.inkscape.org/) -->

<svg
   width="256"
   height="256"
   viewBox="0 0 67.733332 67.733333"
   version="1.1"
   id="svg1"
   inkscape:version="1.4.2 (ebf0e940d0, 2025-05-08)"
   sodipodi:docname="bang.svg"
   xmlns:inkscape="http://www.inkscape.org/namespaces/inkscape"
   xmlns:sodipodi="http://sodipodi.sourceforge.net/DTD/sodipodi-0.dtd"
   xmlns="http://www.w3.org/2000/svg"
   xmlns:svg="http://www.w3.org/2000/svg">
  <sodipodi:namedview
     id="namedview1"
     pagecolor="#ffffff"
     bordercolor="#999999"
     borderopacity="1"
     inkscape:showpageshadow="2"
     inkscape:pageopacity="0"
     inkscape:pagecheckerboard="0"
     inkscape:deskcolor="#d1d1d1"
     inkscape:document-units="mm"
     inkscape:zoom="2.8284271"
     inkscape:cx="96.3433"
     inkscape:cy="127.456"
     inkscape:window-width="1920"
     inkscape:window-height="1012"
     inkscape:window-x="0"
     inkscape:window-y="0"
     inkscape:window-maximized="1"
     inkscape:current-layer="layer1" />
  <defs
     id="defs1" />
  <g
     inkscape:label="Layer 1"
     inkscape:groupmode="layer"
     id="layer1">
    <g
       id="g2"
       transform="translate(-0.54366792,11.440049)">
      <path
         style="fill:#ffbe19;fill-opacity:1;stroke:#000000;stroke-width:1.05833"
         d="M 25.25697,1.8708867 19.924943,13.002663 12.160763,5.3320269 17.399246,20.29912 4.9578498,23.198995 15.247726,28.0633 9.5415221,44.620648 30.776087,33.395327 49.110775,44.714191 45.556091,35.640392 62.955336,38.820899 50.794573,29.372919 63.516602,26.847223 51.542928,19.270133 65.2004,11.505953 48.268876,13.844561 54.629891,6.6416477 39.662797,8.9802561 37.885454,0 30.776087,7.9512683 Z"
         id="path1"
         sodipodi:nodetypes="ccccccccccccccccccccc" />
      <path
         style="font-weight:bold;font-size:11.2889px;font-family:'Comic Sans MS';-inkscape-font-specification:'Comic Sans MS Bold';stroke-width:1.05833"
         d="m 22.798972,27.661237 q -1.284333,0.479558 -3.246662,0.479558 -0.330729,0 -0.595313,-0.275608 -0.259071,-0.275608 -0.259071,-0.589801 v -5.842888 q -0.01654,-0.374827 -0.02756,-0.749654 -0.01654,-0.424436 0.02756,-0.71658 0.07717,-0.518143 0.964628,-0.628386 0.418924,-0.121268 1.389064,-0.121268 1.041797,0 1.995401,0.672484 1.118968,0.782726 1.118968,1.956816 0,0.633898 -0.231511,1.069359 -0.181901,0.352778 -0.633898,0.755165 0.53468,0.259072 0.948091,0.782727 0.468534,0.584289 0.468534,1.163065 0,0.733117 -0.799263,1.389064 -0.534679,0.435461 -1.118968,0.655947 z m -1.747354,-6.950832 q -0.711069,0 -0.854385,0.01103 l 0.0055,1.168577 -0.0055,1.157553 q 0.501606,0.06063 0.755166,0.03859 1.68672,-0.132292 1.68672,-1.240236 0,-0.391363 -0.496094,-0.755166 -0.512631,-0.380339 -1.091407,-0.380339 z m 0.644922,3.897096 q -0.501606,0 -1.499307,-0.03858 v 2.061547 q 0.948091,-0.04961 2.056035,-0.363802 0.97014,-0.275608 0.959116,-0.595313 -0.01654,-0.424436 -0.622874,-0.755166 -0.474046,-0.264583 -0.89297,-0.308681 z m 10.236078,3.434075 q -0.43546,-0.01654 -0.876433,-1.025262 -0.292144,-0.650434 -0.501606,-1.499307 -0.4079,0.06063 -1.333943,0.121268 -0.870921,0.06063 -1.333942,0.143316 -0.253559,0.606337 -0.881945,1.824524 -0.242535,0.396876 -0.672484,0.396876 -0.303168,0 -0.545703,-0.20395 -0.242535,-0.209462 -0.242535,-0.529167 0,-0.28112 0.804775,-1.907207 -0.07717,-0.170877 -0.06615,-0.319705 0.02205,-0.264584 0.534679,-0.413412 0.782727,-1.355991 1.741842,-2.811201 1.37804,-2.089108 1.697745,-2.089108 0.606338,0 0.810288,0.733117 0.110243,0.589801 0.347265,1.769403 0.336242,1.587502 0.821312,3.632512 0.03858,0.154341 0.28112,0.727605 0.198438,0.474046 0.198438,0.711069 0,0.319705 -0.242535,0.534679 -0.237023,0.214974 -0.540192,0.20395 z m -2.056035,-5.655475 q -0.429948,0.73863 -1.185114,2.011938 0.248047,-0.05512 0.771702,-0.08819 0.617362,-0.03858 0.777215,-0.06063 -0.132292,-0.716581 -0.363803,-1.86311 z m 12.137773,4.134119 q 0,0.275608 -0.09371,0.870921 -0.110243,0.711069 -0.804775,0.711069 -0.385852,0 -0.870921,-0.435461 -2.122181,-1.912719 -4.790066,-5.36333 -0.03307,1.433161 -0.03307,1.758379 0,0.43546 0.01654,1.311893 0.02205,0.876433 0.02205,1.311894 0,1.626087 -0.793751,1.626087 -0.402387,0 -0.644922,-0.248047 -0.214974,-0.220487 -0.214974,-0.53468 0,-0.220486 0.03307,-0.666971 0.03858,-0.446485 0.03858,-0.666971 0,-0.325217 0.02205,-0.975652 0.02205,-0.650435 0.02205,-0.975652 0,-0.347266 -0.01654,-1.04731 -0.01654,-0.700044 -0.01654,-1.04731 0,-0.33073 -0.06615,-0.986677 -0.06615,-0.655947 -0.06615,-0.986676 0,-0.33073 0.28112,-0.589801 0.286632,-0.259071 0.650435,-0.259071 0.4079,0 0.903994,0.705556 2.50252,3.571878 4.938894,5.826351 0.0055,-0.176389 0.0055,-0.837848 0,-2.717494 -0.05512,-3.665585 -0.01102,-0.159853 -0.07166,-0.595313 -0.05512,-0.385851 -0.05512,-0.606338 0,-0.760678 0.804775,-0.760678 0.898482,0 0.898482,2.772616 0,0.06063 -0.01102,0.870921 -0.03307,2.800177 -0.03307,3.483684 z m 7.821754,-1.885158 q -0.374826,1.642623 -1.510331,2.6293 -1.152041,0.992188 -2.700958,0.992188 -1.466234,0 -2.199351,-0.771702 -0.733117,-0.777214 -0.733117,-2.326131 0,-1.411112 0.694532,-2.893883 0.694532,-1.482771 1.785939,-2.403301 0.76619,-0.644923 1.642623,-0.644923 0.53468,0 1.45521,0.385851 1.091408,0.45751 1.091408,0.975652 0,0.297657 -0.225999,0.53468 -0.225998,0.23151 -0.556728,0.23151 -0.165365,0 -0.733117,-0.30868 -0.56224,-0.314193 -1.030774,-0.314193 -0.496094,0 -1.339454,1.069358 -1.229211,1.554429 -1.229211,3.367929 0,0.920531 0.270095,1.25126 0.286633,0.347266 1.107944,0.347266 0.843361,0 1.482771,-0.479558 0.677995,-0.507118 1.003213,-1.477258 -1.278821,0.09922 -2.226912,0.523655 -0.170877,0.07717 -0.341754,0.07717 -0.341754,0 -0.567752,-0.253559 -0.20395,-0.225999 -0.20395,-0.512631 0,-0.84336 1.995401,-1.179602 1.12448,-0.187413 2.623787,-0.187413 0.33073,0 0.551216,0.214974 0.225999,0.214974 0.225999,0.529167 0,0.402388 -0.33073,0.622874 z"
         id="text2"
         aria-label="BANG" />
    </g>
    <path
       style="fill:#ffbe19;fill-opacity:1;stroke:#000000;stroke-width:1.05833"
       d="M 30.776087,7.9512683 Z"
       id="path2" />
  </g>
</svg>
